<?xml version="1.0" encoding="UTF-8"?>
<svg id="Layer_1" data-name="Layer 1" xmlns="http://www.w3.org/2000/svg" viewBox="0 0 100 88.94">
  <defs>
    <style>
      .cls-1 {
        fill: #fff;
      }
    </style>
  </defs>
  <path class="cls-1" d="M31.83,45.09l-13.57-29.55v23.47c0,2.16.23,3.51.7,4.04.64.73,1.65,1.09,3.03,1.09h1.24v.96h-12.22v-.96h1.24c1.48,0,2.54-.45,3.16-1.35.38-.55.57-1.81.57-3.78v-22.95c0-1.55-.17-2.68-.52-3.37-.24-.5-.69-.92-1.33-1.26-.65-.34-1.69-.51-3.12-.51v-.96h9.95l12.74,27.48,12.54-27.48h9.95v.96h-1.22c-1.5,0-2.56.45-3.19,1.35-.38.55-.57,1.81-.57,3.78v22.95c0,2.16.24,3.51.73,4.04.64.73,1.65,1.09,3.03,1.09h1.22v.96h-14.92v-.96h1.24c1.5,0,2.56-.45,3.16-1.35.38-.55.57-1.81.57-3.78V15.54l-13.55,29.55h-.85Z"/>
  <path class="cls-1" d="M52.62,30.18v-.96h15.05v.96h-1.27c-1.43,0-2.48.42-3.13,1.27-.41.55-.62,1.88-.62,3.99v17.17c0,2.64-.29,4.78-.87,6.42-.58,1.64-1.58,3.07-2.99,4.29-1.42,1.22-3.13,1.83-5.13,1.83-1.62,0-2.9-.4-3.83-1.2-.93-.8-1.4-1.72-1.4-2.76,0-.85.22-1.48.65-1.92.57-.53,1.23-.8,1.99-.8.55,0,1.05.18,1.49.54s1,1.33,1.67,2.9c.4.93.91,1.4,1.53,1.4.47,0,.9-.28,1.31-.85.41-.57.61-1.58.61-3.03v-23.98c0-1.78-.11-2.95-.34-3.52-.17-.43-.54-.8-1.09-1.11-.74-.41-1.53-.62-2.36-.62h-1.27Z"/>
  <path class="cls-1" d="M73.36,61.83v10.23c0,2.21.24,3.58.73,4.12.66.76,1.65,1.14,2.98,1.14h1.35v.96h-15.05v-.96h1.32c1.48,0,2.55-.48,3.19-1.45.35-.53.52-1.8.52-3.81v-22.69c0-2.21-.23-3.58-.7-4.12-.67-.76-1.68-1.14-3-1.14h-1.32v-.96h12.87c3.14,0,5.62.32,7.43.97,1.81.65,3.34,1.74,4.58,3.28,1.24,1.54,1.87,3.36,1.87,5.46,0,2.87-.95,5.2-2.84,6.99-1.89,1.8-4.56,2.69-8.02,2.69-.85,0-1.76-.06-2.75-.18-.98-.12-2.04-.3-3.16-.54ZM73.36,60.36c.92.17,1.73.3,2.43.39.71.09,1.31.13,1.81.13,1.8,0,3.34-.69,4.65-2.08,1.3-1.39,1.96-3.19,1.96-5.4,0-1.52-.31-2.93-.93-4.23-.62-1.3-1.5-2.28-2.64-2.93s-2.43-.97-3.88-.97c-.88,0-2.01.16-3.39.49v14.61Z"/>
  <path class="cls-1" d="M100,88.94H0V0h100v88.94ZM1.74,87.2h96.53V1.74H1.74v85.47Z"/>
</svg>