<?xml version="1.0" encoding="UTF-8"?>
<svg id="Layer_2" data-name="Layer 2" xmlns="http://www.w3.org/2000/svg" viewBox="0 0 575.31 100.19">
  <defs>
    <style>
      .cls-1 {
        fill: #fff;
      }
    </style>
  </defs>
  <g id="Layer_1-2" data-name="Layer 1">
    <g>
      <path class="cls-1" d="M35.85,50.8l-15.29-33.29v26.44c0,2.43.26,3.95.79,4.55.72.82,1.86,1.23,3.41,1.23h1.4v1.08h-13.77v-1.08h1.4c1.67,0,2.86-.51,3.56-1.52.43-.62.64-2.04.64-4.26v-25.85c0-1.75-.19-3.01-.58-3.79-.27-.56-.77-1.04-1.5-1.42-.73-.38-1.9-.57-3.52-.57v-1.08h11.2l14.36,30.96,14.12-30.96h11.2v1.08h-1.37c-1.69,0-2.89.51-3.59,1.52-.43.62-.64,2.04-.64,4.26v25.85c0,2.43.27,3.95.82,4.55.72.82,1.86,1.23,3.41,1.23h1.37v1.08h-16.81v-1.08h1.4c1.69,0,2.88-.51,3.56-1.52.43-.62.64-2.04.64-4.26v-26.44l-15.26,33.29h-.96Z"/>
      <path class="cls-1" d="M59.28,34v-1.08h16.95v1.08h-1.43c-1.61,0-2.79.48-3.53,1.43-.47.62-.7,2.12-.7,4.49v19.35c0,2.98-.33,5.39-.98,7.24-.65,1.85-1.78,3.46-3.37,4.83-1.6,1.37-3.52,2.06-5.78,2.06-1.83,0-3.27-.45-4.32-1.36-1.05-.9-1.58-1.94-1.58-3.11,0-.95.24-1.67.73-2.16.64-.6,1.39-.9,2.25-.9.62,0,1.18.2,1.68.61s1.12,1.5,1.88,3.27c.45,1.05,1.02,1.58,1.72,1.58.52,0,1.02-.32,1.47-.96.46-.64.69-1.78.69-3.41v-27.02c0-2-.13-3.33-.38-3.97-.19-.49-.6-.9-1.23-1.25-.84-.47-1.72-.7-2.66-.7h-1.43Z"/>
      <path class="cls-1" d="M82.65,69.66v11.53c0,2.49.27,4.04.82,4.64.74.86,1.86,1.28,3.36,1.28h1.52v1.08h-16.95v-1.08h1.49c1.67,0,2.87-.54,3.59-1.63.39-.6.58-2.03.58-4.29v-25.56c0-2.49-.26-4.04-.79-4.64-.76-.86-1.89-1.28-3.38-1.28h-1.49v-1.08h14.5c3.54,0,6.33.36,8.37,1.09,2.04.73,3.76,1.96,5.16,3.69,1.4,1.73,2.1,3.78,2.1,6.16,0,3.23-1.07,5.86-3.2,7.88-2.13,2.02-5.14,3.03-9.03,3.03-.95,0-1.98-.07-3.09-.2-1.11-.14-2.3-.34-3.56-.61ZM82.65,67.99c1.03.19,1.94.34,2.74.44.8.1,1.48.15,2.04.15,2.02,0,3.77-.78,5.24-2.35,1.47-1.57,2.2-3.59,2.2-6.08,0-1.71-.35-3.3-1.05-4.77-.7-1.47-1.69-2.57-2.98-3.3s-2.74-1.09-4.38-1.09c-.99,0-2.27.19-3.82.55v16.46Z"/>
      <path class="cls-1" d="M112.66,100.19H0V0h112.66v100.19ZM1.96,98.24h108.74V1.96H1.96v96.28Z"/>
    </g>
    <g>
      <path class="cls-1" d="M159.13,12.08v6.63h3.69c.96,0,1.6-.14,1.92-.43.43-.38.67-1.05.72-2h.46v5.84h-.46c-.12-.82-.23-1.34-.35-1.57-.15-.29-.39-.52-.73-.68-.34-.17-.86-.25-1.56-.25h-3.69v5.53c0,.74.03,1.19.1,1.35s.18.29.35.38.48.14.94.14h2.84c.95,0,1.64-.07,2.06-.2s.84-.39,1.24-.78c.51-.51,1.03-1.28,1.57-2.31h.49l-1.45,4.2h-12.92v-.46h.59c.4,0,.77-.09,1.13-.28.26-.13.44-.33.54-.59.09-.26.14-.8.14-1.62v-10.89c0-1.06-.11-1.72-.32-1.97-.3-.33-.79-.49-1.48-.49h-.59v-.46h12.92l.19,3.67h-.48c-.17-.88-.36-1.49-.58-1.82-.21-.33-.52-.58-.93-.75-.33-.12-.91-.19-1.74-.19h-4.6Z"/>
      <path class="cls-1" d="M184.72,23.29l.41.09-1.43,4.55h-12.98v-.46h.63c.71,0,1.22-.23,1.52-.69.17-.26.26-.87.26-1.83v-10.82c0-1.05-.12-1.7-.35-1.97-.32-.36-.8-.54-1.43-.54h-.63v-.46h7.59v.46c-.89,0-1.51.07-1.87.25-.36.17-.6.39-.74.66-.13.26-.2.89-.2,1.89v10.53c0,.68.07,1.15.2,1.41.1.17.25.3.46.38.21.08.85.12,1.93.12h1.22c1.29,0,2.19-.09,2.71-.28.52-.19.99-.53,1.42-1.01s.86-1.24,1.29-2.28Z"/>
      <path class="cls-1" d="M191.85,12.08v6.63h3.69c.96,0,1.6-.14,1.92-.43.43-.38.67-1.05.72-2h.46v5.84h-.46c-.12-.82-.23-1.34-.35-1.57-.15-.29-.39-.52-.73-.68-.34-.17-.86-.25-1.56-.25h-3.69v5.53c0,.74.03,1.19.1,1.35s.18.29.35.38.48.14.94.14h2.84c.95,0,1.64-.07,2.06-.2s.84-.39,1.24-.78c.51-.51,1.03-1.28,1.57-2.31h.49l-1.45,4.2h-12.92v-.46h.59c.4,0,.77-.09,1.13-.28.26-.13.44-.33.54-.59.09-.26.14-.8.14-1.62v-10.89c0-1.06-.11-1.72-.32-1.97-.3-.33-.79-.49-1.48-.49h-.59v-.46h12.92l.19,3.67h-.48c-.17-.88-.36-1.49-.58-1.82-.21-.33-.52-.58-.93-.75-.33-.12-.91-.19-1.74-.19h-4.6Z"/>
      <path class="cls-1" d="M218.17,10.78l.38,5.7h-.38c-.51-1.71-1.24-2.93-2.19-3.69-.95-.75-2.09-1.12-3.41-1.12-1.11,0-2.12.28-3.02.85-.9.56-1.61,1.47-2.12,2.7-.52,1.24-.77,2.77-.77,4.61,0,1.52.24,2.83.73,3.94.49,1.11,1.22,1.97,2.19,2.56.98.59,2.09.89,3.34.89,1.09,0,2.05-.23,2.88-.7s1.75-1.39,2.75-2.78l.38.25c-.84,1.49-1.82,2.58-2.94,3.28s-2.45,1.04-3.99,1.04c-2.78,0-4.93-1.03-6.45-3.09-1.14-1.53-1.71-3.34-1.71-5.42,0-1.67.38-3.21,1.12-4.61s1.78-2.49,3.1-3.26c1.31-.77,2.75-1.16,4.31-1.16,1.21,0,2.41.3,3.59.89.35.18.59.27.74.27.22,0,.42-.08.58-.23.21-.22.37-.53.46-.93h.43Z"/>
      <path class="cls-1" d="M235.35,11.16l.19,3.93h-.47c-.09-.69-.21-1.19-.37-1.48-.26-.48-.6-.83-1.02-1.06-.42-.23-.98-.34-1.68-.34h-2.36v12.81c0,1.03.11,1.67.33,1.93.31.35.8.52,1.45.52h.58v.46h-7.11v-.46h.59c.71,0,1.21-.21,1.51-.64.18-.26.27-.87.27-1.81v-12.81h-2.02c-.78,0-1.34.06-1.67.17-.43.16-.8.46-1.1.9-.31.45-.49,1.05-.54,1.81h-.47l.2-3.93h13.69Z"/>
      <path class="cls-1" d="M254.17,27.93h-4.48l-5.68-7.84c-.42.02-.76.02-1.03.02-.11,0-.22,0-.35,0-.12,0-.25-.01-.38-.02v4.87c0,1.06.12,1.71.35,1.97.31.36.78.54,1.41.54h.66v.46h-7.18v-.46h.63c.71,0,1.22-.23,1.52-.69.17-.26.26-.86.26-1.82v-10.83c0-1.06-.12-1.71-.35-1.97-.32-.36-.8-.54-1.43-.54h-.63v-.46h6.11c1.78,0,3.09.13,3.94.39.84.26,1.56.74,2.15,1.43.59.7.88,1.53.88,2.49,0,1.03-.34,1.92-1.01,2.68-.67.76-1.71,1.29-3.12,1.61l3.46,4.81c.79,1.1,1.47,1.84,2.04,2.2.57.36,1.31.59,2.23.69v.46ZM242.26,19.31c.16,0,.29,0,.41,0,.12,0,.21,0,.28,0,1.6,0,2.8-.35,3.62-1.04s1.22-1.57,1.22-2.65-.33-1.9-.98-2.55c-.66-.66-1.52-.98-2.6-.98-.48,0-1.13.08-1.94.23v6.97Z"/>
      <path class="cls-1" d="M262.65,27.47v.46h-7.18v-.46h.59c.69,0,1.2-.2,1.51-.61.2-.26.3-.9.3-1.9v-10.83c0-.85-.05-1.41-.16-1.68-.08-.21-.25-.38-.51-.53-.36-.2-.74-.3-1.14-.3h-.59v-.46h7.18v.46h-.61c-.68,0-1.18.2-1.5.61-.21.26-.31.9-.31,1.9v10.83c0,.85.05,1.41.16,1.68.08.21.26.38.52.53.35.2.73.3,1.13.3h.61Z"/>
      <path class="cls-1" d="M279.41,10.78l.38,5.7h-.38c-.51-1.71-1.24-2.93-2.19-3.69-.95-.75-2.09-1.12-3.41-1.12-1.11,0-2.12.28-3.02.85-.9.56-1.61,1.47-2.12,2.7-.52,1.24-.77,2.77-.77,4.61,0,1.52.24,2.83.73,3.94.49,1.11,1.22,1.97,2.19,2.56.98.59,2.09.89,3.34.89,1.09,0,2.05-.23,2.88-.7s1.75-1.39,2.75-2.78l.38.25c-.84,1.49-1.82,2.58-2.94,3.28s-2.45,1.04-3.99,1.04c-2.78,0-4.93-1.03-6.45-3.09-1.14-1.53-1.71-3.34-1.71-5.42,0-1.67.38-3.21,1.12-4.61s1.78-2.49,3.1-3.26c1.31-.77,2.75-1.16,4.31-1.16,1.21,0,2.41.3,3.59.89.35.18.59.27.74.27.22,0,.42-.08.58-.23.21-.22.37-.53.46-.93h.43Z"/>
      <path class="cls-1" d="M293.53,22.31h-6.49l-1.14,2.65c-.28.65-.42,1.14-.42,1.46,0,.26.12.48.37.67.24.19.77.32,1.58.38v.46h-5.28v-.46c.7-.12,1.15-.28,1.36-.48.42-.4.89-1.2,1.4-2.41l5.9-13.8h.43l5.84,13.95c.47,1.12.9,1.85,1.28,2.18.38.33.92.52,1.6.56v.46h-6.62v-.46c.67-.03,1.12-.14,1.35-.33.23-.19.35-.42.35-.69,0-.36-.16-.94-.49-1.72l-1.01-2.41ZM293.18,21.4l-2.84-6.78-2.92,6.78h5.76Z"/>
      <path class="cls-1" d="M315.64,23.29l.41.09-1.43,4.55h-12.98v-.46h.63c.71,0,1.22-.23,1.52-.69.17-.26.26-.87.26-1.83v-10.82c0-1.05-.12-1.7-.35-1.97-.32-.36-.8-.54-1.43-.54h-.63v-.46h7.59v.46c-.89,0-1.51.07-1.87.25-.36.17-.6.39-.74.66-.13.26-.2.89-.2,1.89v10.53c0,.68.07,1.15.2,1.41.1.17.25.3.46.38.21.08.85.12,1.93.12h1.22c1.29,0,2.19-.09,2.71-.28.52-.19.99-.53,1.42-1.01s.86-1.24,1.29-2.28Z"/>
      <path class="cls-1" d="M338.12,10.78l.38,5.7h-.38c-.51-1.71-1.24-2.93-2.19-3.69-.95-.75-2.09-1.12-3.41-1.12-1.11,0-2.12.28-3.02.85-.9.56-1.61,1.47-2.12,2.7-.52,1.24-.77,2.77-.77,4.61,0,1.52.24,2.83.73,3.94.49,1.11,1.22,1.97,2.19,2.56.98.59,2.09.89,3.34.89,1.09,0,2.05-.23,2.88-.7s1.75-1.39,2.75-2.78l.38.25c-.84,1.49-1.82,2.58-2.94,3.28s-2.45,1.04-3.99,1.04c-2.78,0-4.93-1.03-6.45-3.09-1.14-1.53-1.71-3.34-1.71-5.42,0-1.67.38-3.21,1.12-4.61s1.78-2.49,3.1-3.26c1.31-.77,2.75-1.16,4.31-1.16,1.21,0,2.41.3,3.59.89.35.18.59.27.74.27.22,0,.42-.08.58-.23.21-.22.37-.53.46-.93h.43Z"/>
      <path class="cls-1" d="M349.91,10.78c2.18,0,4.06.83,5.66,2.48,1.59,1.65,2.39,3.72,2.39,6.19s-.8,4.66-2.41,6.34-3.55,2.52-5.84,2.52-4.25-.82-5.82-2.46c-1.57-1.64-2.36-3.76-2.36-6.37s.91-4.83,2.72-6.52c1.57-1.46,3.46-2.19,5.65-2.19ZM349.68,11.68c-1.5,0-2.7.56-3.61,1.67-1.13,1.38-1.69,3.41-1.69,6.08s.59,4.84,1.76,6.32c.9,1.12,2.09,1.68,3.56,1.68,1.57,0,2.88-.61,3.9-1.84,1.03-1.23,1.54-3.17,1.54-5.81,0-2.87-.56-5.01-1.69-6.42-.91-1.12-2.16-1.68-3.76-1.68Z"/>
      <path class="cls-1" d="M359.5,11.16h4.55l10.25,12.58v-9.67c0-1.03-.12-1.67-.35-1.93-.3-.35-.79-.52-1.45-.52h-.58v-.46h5.84v.46h-.59c-.71,0-1.21.21-1.51.64-.18.26-.27.87-.27,1.81v14.13h-.45l-11.05-13.5v10.32c0,1.03.11,1.67.33,1.93.31.35.8.52,1.45.52h.59v.46h-5.84v-.46h.58c.72,0,1.22-.21,1.52-.64.18-.26.27-.87.27-1.81v-11.66c-.49-.57-.86-.94-1.11-1.12-.25-.18-.62-.35-1.11-.51-.24-.07-.6-.11-1.09-.11v-.46Z"/>
      <path class="cls-1" d="M393.66,11.16l.19,3.93h-.47c-.09-.69-.21-1.19-.37-1.48-.26-.48-.6-.83-1.02-1.06-.42-.23-.98-.34-1.68-.34h-2.36v12.81c0,1.03.11,1.67.33,1.93.31.35.8.52,1.45.52h.58v.46h-7.11v-.46h.59c.71,0,1.21-.21,1.51-.64.18-.26.27-.87.27-1.81v-12.81h-2.02c-.78,0-1.34.06-1.67.17-.43.16-.8.46-1.1.9-.31.45-.49,1.05-.54,1.81h-.47l.2-3.93h13.69Z"/>
      <path class="cls-1" d="M412.48,27.93h-4.48l-5.68-7.84c-.42.02-.76.02-1.03.02-.11,0-.22,0-.35,0-.12,0-.25-.01-.38-.02v4.87c0,1.06.12,1.71.35,1.97.31.36.78.54,1.41.54h.66v.46h-7.18v-.46h.63c.71,0,1.22-.23,1.52-.69.17-.26.26-.86.26-1.82v-10.83c0-1.06-.12-1.71-.35-1.97-.32-.36-.8-.54-1.43-.54h-.63v-.46h6.11c1.78,0,3.09.13,3.94.39.84.26,1.56.74,2.15,1.43.59.7.88,1.53.88,2.49,0,1.03-.34,1.92-1.01,2.68-.67.76-1.71,1.29-3.12,1.61l3.46,4.81c.79,1.1,1.47,1.84,2.04,2.2.57.36,1.31.59,2.23.69v.46ZM400.57,19.31c.16,0,.29,0,.41,0,.12,0,.21,0,.28,0,1.6,0,2.8-.35,3.62-1.04s1.22-1.57,1.22-2.65-.33-1.9-.98-2.55c-.66-.66-1.52-.98-2.6-.98-.48,0-1.13.08-1.94.23v6.97Z"/>
      <path class="cls-1" d="M424.73,22.31h-6.49l-1.14,2.65c-.28.65-.42,1.14-.42,1.46,0,.26.12.48.37.67.24.19.77.32,1.58.38v.46h-5.28v-.46c.7-.12,1.15-.28,1.36-.48.42-.4.89-1.2,1.4-2.41l5.9-13.8h.43l5.84,13.95c.47,1.12.9,1.85,1.28,2.18.38.33.92.52,1.6.56v.46h-6.62v-.46c.67-.03,1.12-.14,1.35-.33.23-.19.35-.42.35-.69,0-.36-.16-.94-.49-1.72l-1.01-2.41ZM424.39,21.4l-2.84-6.78-2.92,6.78h5.76Z"/>
      <path class="cls-1" d="M447.57,10.78l.38,5.7h-.38c-.51-1.71-1.24-2.93-2.19-3.69-.95-.75-2.09-1.12-3.41-1.12-1.11,0-2.12.28-3.02.85-.9.56-1.61,1.47-2.12,2.7-.52,1.24-.77,2.77-.77,4.61,0,1.52.24,2.83.73,3.94.49,1.11,1.22,1.97,2.19,2.56.98.59,2.09.89,3.34.89,1.09,0,2.05-.23,2.88-.7s1.75-1.39,2.75-2.78l.38.25c-.84,1.49-1.82,2.58-2.94,3.28s-2.45,1.04-3.99,1.04c-2.78,0-4.93-1.03-6.45-3.09-1.14-1.53-1.71-3.34-1.71-5.42,0-1.67.38-3.21,1.12-4.61s1.78-2.49,3.1-3.26c1.31-.77,2.75-1.16,4.31-1.16,1.21,0,2.41.3,3.59.89.35.18.59.27.74.27.22,0,.42-.08.58-.23.21-.22.37-.53.46-.93h.43Z"/>
      <path class="cls-1" d="M464.76,11.16l.19,3.93h-.47c-.09-.69-.21-1.19-.37-1.48-.26-.48-.6-.83-1.02-1.06-.42-.23-.98-.34-1.68-.34h-2.36v12.81c0,1.03.11,1.67.33,1.93.31.35.8.52,1.45.52h.58v.46h-7.11v-.46h.59c.71,0,1.21-.21,1.51-.64.18-.26.27-.87.27-1.81v-12.81h-2.02c-.78,0-1.34.06-1.67.17-.43.16-.8.46-1.1.9-.31.45-.49,1.05-.54,1.81h-.47l.2-3.93h13.69Z"/>
      <path class="cls-1" d="M475.27,10.78c2.18,0,4.06.83,5.66,2.48,1.59,1.65,2.39,3.72,2.39,6.19s-.8,4.66-2.41,6.34-3.55,2.52-5.84,2.52-4.25-.82-5.82-2.46c-1.57-1.64-2.36-3.76-2.36-6.37s.91-4.83,2.72-6.52c1.57-1.46,3.46-2.19,5.65-2.19ZM475.03,11.68c-1.5,0-2.7.56-3.61,1.67-1.13,1.38-1.69,3.41-1.69,6.08s.59,4.84,1.76,6.32c.9,1.12,2.09,1.68,3.56,1.68,1.57,0,2.88-.61,3.9-1.84,1.03-1.23,1.54-3.17,1.54-5.81,0-2.87-.56-5.01-1.69-6.42-.91-1.12-2.16-1.68-3.76-1.68Z"/>
      <path class="cls-1" d="M502.3,27.93h-4.48l-5.68-7.84c-.42.02-.76.02-1.03.02-.11,0-.22,0-.35,0-.12,0-.25-.01-.38-.02v4.87c0,1.06.12,1.71.35,1.97.31.36.78.54,1.41.54h.66v.46h-7.18v-.46h.63c.71,0,1.22-.23,1.52-.69.17-.26.26-.86.26-1.82v-10.83c0-1.06-.12-1.71-.35-1.97-.32-.36-.8-.54-1.43-.54h-.63v-.46h6.11c1.78,0,3.09.13,3.94.39.84.26,1.56.74,2.15,1.43.59.7.88,1.53.88,2.49,0,1.03-.34,1.92-1.01,2.68-.67.76-1.71,1.29-3.12,1.61l3.46,4.81c.79,1.1,1.47,1.84,2.04,2.2.57.36,1.31.59,2.23.69v.46ZM490.39,19.31c.16,0,.29,0,.41,0,.12,0,.21,0,.28,0,1.6,0,2.8-.35,3.62-1.04s1.22-1.57,1.22-2.65-.33-1.9-.98-2.55c-.66-.66-1.52-.98-2.6-.98-.48,0-1.13.08-1.94.23v6.97Z"/>
      <path class="cls-1" d="M514.58,10.78v5.8h-.46c-.15-1.11-.41-2-.8-2.66-.38-.66-.93-1.18-1.64-1.57-.71-.39-1.44-.58-2.2-.58-.86,0-1.57.26-2.13.79-.56.52-.84,1.12-.84,1.79,0,.51.18.98.53,1.4.51.62,1.73,1.44,3.65,2.47,1.57.84,2.64,1.49,3.21,1.94.57.45,1.01.98,1.32,1.59.31.61.46,1.25.46,1.92,0,1.27-.49,2.36-1.48,3.28-.99.92-2.25,1.38-3.8,1.38-.49,0-.94-.04-1.37-.11-.26-.04-.79-.19-1.59-.45s-1.31-.39-1.53-.39-.37.06-.49.19-.21.38-.27.77h-.46v-5.75h.46c.21,1.2.5,2.1.87,2.7s.92,1.09,1.66,1.49c.75.4,1.56.59,2.45.59,1.03,0,1.84-.27,2.44-.82.6-.54.9-1.19.9-1.93,0-.41-.11-.83-.34-1.25-.23-.42-.58-.81-1.06-1.17-.32-.25-1.2-.77-2.63-1.58-1.43-.8-2.45-1.44-3.06-1.92s-1.07-1.01-1.38-1.58c-.31-.58-.47-1.21-.47-1.9,0-1.2.46-2.24,1.39-3.11.92-.87,2.1-1.3,3.52-1.3.89,0,1.83.22,2.83.66.46.21.79.31.98.31.21,0,.39-.06.53-.19.14-.13.25-.39.33-.77h.46Z"/>
      <path class="cls-1" d="M538.79,23.29l.41.09-1.43,4.55h-12.98v-.46h.63c.71,0,1.22-.23,1.52-.69.17-.26.26-.87.26-1.83v-10.82c0-1.05-.12-1.7-.35-1.97-.32-.36-.8-.54-1.43-.54h-.63v-.46h7.59v.46c-.89,0-1.51.07-1.87.25-.36.17-.6.39-.74.66-.13.26-.2.89-.2,1.89v10.53c0,.68.07,1.15.2,1.41.1.17.25.3.46.38.21.08.85.12,1.93.12h1.22c1.29,0,2.19-.09,2.71-.28.52-.19.99-.53,1.42-1.01s.86-1.24,1.29-2.28Z"/>
      <path class="cls-1" d="M552.96,11.16l.19,3.93h-.47c-.09-.69-.21-1.19-.37-1.48-.26-.48-.6-.83-1.02-1.06-.42-.23-.98-.34-1.68-.34h-2.36v12.81c0,1.03.11,1.67.33,1.93.31.35.8.52,1.45.52h.58v.46h-7.11v-.46h.59c.71,0,1.21-.21,1.51-.64.18-.26.27-.87.27-1.81v-12.81h-2.02c-.78,0-1.34.06-1.67.17-.43.16-.8.46-1.1.9-.31.45-.49,1.05-.54,1.81h-.47l.2-3.93h13.69Z"/>
      <path class="cls-1" d="M555.1,27.93v-.46h.63c.71,0,1.21-.23,1.51-.68.18-.27.27-.88.27-1.83v-10.83c0-1.05-.12-1.7-.35-1.97-.32-.36-.8-.54-1.43-.54h-.63v-.46h6.83c2.51,0,4.41.28,5.72.85,1.31.57,2.36,1.52,3.15,2.84s1.19,2.86,1.19,4.6c0,2.33-.71,4.28-2.13,5.85-1.59,1.75-4.01,2.62-7.27,2.62h-7.49ZM559.88,26.72c1.05.23,1.92.35,2.63.35,1.91,0,3.5-.67,4.76-2.02s1.89-3.17,1.89-5.47-.63-4.14-1.89-5.48c-1.26-1.33-2.88-2-4.86-2-.74,0-1.59.12-2.54.36v14.26Z"/>
    </g>
    <g>
      <path class="cls-1" d="M152.07,84.17v-.31h.42c.48,0,.82-.15,1.02-.46.12-.18.18-.59.18-1.23v-7.29c0-.7-.08-1.15-.23-1.32-.22-.24-.54-.37-.97-.37h-.42v-.31h4.59c1.69,0,2.97.19,3.85.57s1.59,1.02,2.12,1.91.8,1.93.8,3.1c0,1.57-.48,2.88-1.43,3.94-1.07,1.18-2.7,1.76-4.89,1.76h-5.04ZM155.3,83.35c.7.16,1.3.23,1.77.23,1.29,0,2.36-.45,3.2-1.36.85-.9,1.27-2.13,1.27-3.68s-.42-2.79-1.27-3.69c-.85-.9-1.94-1.35-3.27-1.35-.5,0-1.07.08-1.71.24v9.6Z"/>
      <path class="cls-1" d="M170.76,72.63c1.46,0,2.73.56,3.81,1.67,1.07,1.11,1.61,2.5,1.61,4.17s-.54,3.14-1.62,4.27-2.39,1.7-3.93,1.7-2.86-.55-3.92-1.66c-1.06-1.1-1.59-2.53-1.59-4.29s.61-3.25,1.83-4.39c1.06-.98,2.33-1.47,3.8-1.47ZM170.6,73.23c-1.01,0-1.82.37-2.43,1.12-.76.93-1.14,2.3-1.14,4.1s.39,3.26,1.18,4.25c.6.75,1.4,1.13,2.4,1.13,1.06,0,1.94-.41,2.63-1.24.69-.83,1.04-2.13,1.04-3.91,0-1.93-.38-3.37-1.14-4.32-.61-.75-1.45-1.13-2.53-1.13Z"/>
      <path class="cls-1" d="M184.24,84.17l-4.36-9.5v7.54c0,.69.07,1.13.22,1.3.21.23.53.35.97.35h.4v.31h-3.93v-.31h.4c.48,0,.82-.14,1.02-.43.12-.18.18-.58.18-1.22v-7.37c0-.5-.06-.86-.17-1.08-.08-.16-.22-.3-.43-.4-.21-.11-.54-.16-1-.16v-.31h3.2l4.1,8.83,4.03-8.83h3.2v.31h-.39c-.48,0-.82.14-1.02.43-.12.18-.18.58-.18,1.22v7.37c0,.69.08,1.13.23,1.3.21.23.53.35.97.35h.39v.31h-4.79v-.31h.4c.48,0,.82-.14,1.02-.43.12-.18.18-.58.18-1.22v-7.54l-4.35,9.5h-.27Z"/>
      <path class="cls-1" d="M196.41,73.5v4.46h2.48c.64,0,1.07-.1,1.29-.29.29-.26.45-.7.48-1.35h.31v3.93h-.31c-.08-.55-.16-.9-.23-1.06-.1-.19-.26-.35-.49-.46-.23-.11-.58-.17-1.05-.17h-2.48v3.72c0,.5.02.8.07.91s.12.19.23.26c.11.06.32.1.63.1h1.91c.64,0,1.1-.04,1.39-.13s.57-.26.83-.52c.34-.34.7-.86,1.06-1.56h.33l-.97,2.83h-8.7v-.31h.4c.27,0,.52-.06.76-.19.18-.09.3-.22.36-.4.06-.18.1-.54.1-1.09v-7.33c0-.72-.07-1.16-.22-1.32-.2-.22-.53-.33-1-.33h-.4v-.31h8.7l.12,2.47h-.32c-.12-.59-.25-1-.39-1.22-.14-.22-.35-.39-.63-.51-.22-.08-.61-.12-1.17-.12h-3.1Z"/>
      <path class="cls-1" d="M211.5,72.63v3.9h-.31c-.1-.75-.28-1.35-.54-1.79-.26-.44-.63-.8-1.1-1.06-.48-.26-.97-.39-1.48-.39-.58,0-1.05.18-1.43.53-.38.35-.57.75-.57,1.2,0,.34.12.66.36.94.34.42,1.16.97,2.46,1.67,1.05.57,1.77,1,2.16,1.3.39.3.68.66.89,1.07.21.41.31.84.31,1.29,0,.85-.33,1.59-.99,2.21s-1.52.93-2.56.93c-.33,0-.64-.02-.92-.07-.17-.03-.53-.13-1.07-.3s-.88-.26-1.03-.26-.25.04-.33.12c-.08.08-.14.25-.18.52h-.31v-3.87h.31c.14.81.34,1.42.58,1.82s.62.74,1.12,1c.5.27,1.05.4,1.65.4.69,0,1.24-.18,1.64-.55.4-.37.6-.8.6-1.3,0-.28-.08-.56-.23-.84-.15-.28-.39-.55-.71-.79-.22-.17-.81-.52-1.77-1.06-.97-.54-1.65-.97-2.06-1.29-.41-.32-.72-.68-.93-1.07-.21-.39-.32-.82-.32-1.28,0-.81.31-1.51.93-2.09s1.41-.88,2.37-.88c.6,0,1.23.15,1.91.44.31.14.53.21.66.21.14,0,.26-.04.35-.13.09-.09.17-.26.22-.52h.31Z"/>
      <path class="cls-1" d="M223.46,72.88l.12,2.65h-.32c-.06-.47-.14-.8-.25-1-.17-.32-.4-.56-.69-.71s-.66-.23-1.13-.23h-1.59v8.62c0,.69.07,1.13.22,1.3.21.23.54.35.97.35h.39v.31h-4.79v-.31h.4c.48,0,.82-.14,1.02-.43.12-.18.18-.58.18-1.22v-8.62h-1.36c-.53,0-.9.04-1.12.12-.29.11-.54.31-.74.61-.21.3-.33.7-.37,1.22h-.32l.13-2.65h9.21Z"/>
      <path class="cls-1" d="M229.7,83.86v.31h-4.84v-.31h.4c.47,0,.8-.14,1.02-.41.13-.18.2-.6.2-1.28v-7.29c0-.57-.04-.95-.11-1.13-.06-.14-.17-.26-.34-.36-.24-.13-.5-.2-.77-.2h-.4v-.31h4.84v.31h-.41c-.46,0-.8.14-1.01.41-.14.18-.21.6-.21,1.28v7.29c0,.57.04.95.11,1.13.06.14.17.26.35.36.24.13.49.2.76.2h.41Z"/>
      <path class="cls-1" d="M240.13,72.63l.26,3.84h-.26c-.34-1.15-.83-1.98-1.47-2.48s-1.4-.76-2.3-.76c-.75,0-1.43.19-2.03.57-.6.38-1.08.99-1.43,1.82-.35.83-.52,1.87-.52,3.1,0,1.02.16,1.91.49,2.65.33.75.82,1.32,1.48,1.72.66.4,1.41.6,2.25.6.73,0,1.38-.16,1.94-.47s1.18-.94,1.85-1.87l.26.17c-.57,1-1.23,1.74-1.98,2.21-.75.47-1.65.7-2.69.7-1.87,0-3.32-.69-4.34-2.08-.77-1.03-1.15-2.25-1.15-3.65,0-1.13.25-2.16.76-3.1.5-.94,1.2-1.67,2.08-2.19.88-.52,1.85-.78,2.9-.78.82,0,1.62.2,2.41.6.23.12.4.18.5.18.15,0,.28-.05.39-.16.14-.15.25-.36.31-.62h.29Z"/>
    </g>
    <g>
      <path class="cls-1" d="M306.85,72.63l.26,3.84h-.26c-.34-1.15-.83-1.98-1.47-2.48s-1.4-.76-2.3-.76c-.75,0-1.43.19-2.03.57-.6.38-1.08.99-1.43,1.82-.35.83-.52,1.87-.52,3.1,0,1.02.16,1.91.49,2.65.33.75.82,1.32,1.48,1.72.66.4,1.41.6,2.25.6.73,0,1.38-.16,1.94-.47s1.18-.94,1.85-1.87l.26.17c-.57,1-1.23,1.74-1.98,2.21-.75.47-1.65.7-2.69.7-1.87,0-3.32-.69-4.34-2.08-.77-1.03-1.15-2.25-1.15-3.65,0-1.13.25-2.16.76-3.1.5-.94,1.2-1.67,2.08-2.19.88-.52,1.85-.78,2.9-.78.82,0,1.62.2,2.41.6.23.12.4.18.5.18.15,0,.28-.05.39-.16.14-.15.25-.36.31-.62h.29Z"/>
      <path class="cls-1" d="M314.62,72.63c1.46,0,2.73.56,3.81,1.67,1.07,1.11,1.61,2.5,1.61,4.17s-.54,3.14-1.62,4.27-2.39,1.7-3.93,1.7-2.86-.55-3.92-1.66c-1.06-1.1-1.59-2.53-1.59-4.29s.61-3.25,1.83-4.39c1.06-.98,2.33-1.47,3.8-1.47ZM314.46,73.23c-1.01,0-1.82.37-2.43,1.12-.76.93-1.14,2.3-1.14,4.1s.39,3.26,1.18,4.25c.6.75,1.4,1.13,2.4,1.13,1.06,0,1.94-.41,2.63-1.24.69-.83,1.04-2.13,1.04-3.91,0-1.93-.38-3.37-1.14-4.32-.61-.75-1.45-1.13-2.53-1.13Z"/>
      <path class="cls-1" d="M328.1,84.17l-4.36-9.5v7.54c0,.69.07,1.13.22,1.3.21.23.53.35.97.35h.4v.31h-3.93v-.31h.4c.48,0,.82-.14,1.02-.43.12-.18.18-.58.18-1.22v-7.37c0-.5-.06-.86-.17-1.08-.08-.16-.22-.3-.43-.4-.21-.11-.54-.16-1-.16v-.31h3.2l4.1,8.83,4.03-8.83h3.2v.31h-.39c-.48,0-.82.14-1.02.43-.12.18-.18.58-.18,1.22v7.37c0,.69.08,1.13.23,1.3.21.23.53.35.97.35h.39v.31h-4.79v-.31h.4c.48,0,.82-.14,1.02-.43.12-.18.18-.58.18-1.22v-7.54l-4.35,9.5h-.27Z"/>
      <path class="cls-1" d="M343.68,84.17l-4.36-9.5v7.54c0,.69.07,1.13.22,1.3.21.23.53.35.97.35h.4v.31h-3.93v-.31h.4c.48,0,.82-.14,1.02-.43.12-.18.18-.58.18-1.22v-7.37c0-.5-.06-.86-.17-1.08-.08-.16-.22-.3-.43-.4-.21-.11-.54-.16-1-.16v-.31h3.2l4.1,8.83,4.03-8.83h3.2v.31h-.39c-.48,0-.82.14-1.02.43-.12.18-.18.58-.18,1.22v7.37c0,.69.08,1.13.23,1.3.21.23.53.35.97.35h.39v.31h-4.79v-.31h.4c.48,0,.82-.14,1.02-.43.12-.18.18-.58.18-1.22v-7.54l-4.35,9.5h-.27Z"/>
      <path class="cls-1" d="M355.85,73.5v4.46h2.48c.64,0,1.07-.1,1.29-.29.29-.26.45-.7.48-1.35h.31v3.93h-.31c-.08-.55-.16-.9-.23-1.06-.1-.19-.26-.35-.49-.46-.23-.11-.58-.17-1.05-.17h-2.48v3.72c0,.5.02.8.07.91s.12.19.23.26c.11.06.32.1.63.1h1.91c.64,0,1.1-.04,1.39-.13s.57-.26.83-.52c.34-.34.7-.86,1.06-1.56h.33l-.97,2.83h-8.7v-.31h.4c.27,0,.52-.06.76-.19.18-.09.3-.22.36-.4.06-.18.1-.54.1-1.09v-7.33c0-.72-.07-1.16-.22-1.32-.2-.22-.53-.33-1-.33h-.4v-.31h8.7l.12,2.47h-.32c-.12-.59-.25-1-.39-1.22-.14-.22-.35-.39-.63-.51-.22-.08-.61-.12-1.17-.12h-3.1Z"/>
      <path class="cls-1" d="M374.65,84.17h-3.01l-3.82-5.28c-.28.01-.51.02-.69.02-.07,0-.15,0-.23,0-.08,0-.17,0-.26-.01v3.28c0,.71.08,1.15.23,1.32.21.24.53.37.95.37h.44v.31h-4.84v-.31h.42c.48,0,.82-.16,1.02-.47.12-.17.17-.58.17-1.22v-7.29c0-.71-.08-1.15-.23-1.32-.22-.24-.54-.37-.97-.37h-.42v-.31h4.11c1.2,0,2.08.09,2.65.26s1.05.5,1.45.97c.4.47.6,1.03.6,1.68,0,.69-.23,1.3-.68,1.81-.45.51-1.15.87-2.1,1.08l2.33,3.24c.53.74.99,1.24,1.37,1.48s.88.4,1.5.47v.31ZM366.64,78.37c.1,0,.2,0,.27,0,.08,0,.14,0,.19,0,1.08,0,1.89-.23,2.43-.7.55-.47.82-1.06.82-1.78s-.22-1.28-.66-1.72c-.44-.44-1.03-.66-1.75-.66-.32,0-.76.05-1.31.16v4.69Z"/>
      <path class="cls-1" d="M385.19,72.63l.26,3.84h-.26c-.34-1.15-.83-1.98-1.47-2.48s-1.4-.76-2.3-.76c-.75,0-1.43.19-2.03.57-.6.38-1.08.99-1.43,1.82-.35.83-.52,1.87-.52,3.1,0,1.02.16,1.91.49,2.65.33.75.82,1.32,1.48,1.72.66.4,1.41.6,2.25.6.73,0,1.38-.16,1.94-.47s1.18-.94,1.85-1.87l.26.17c-.57,1-1.23,1.74-1.98,2.21-.75.47-1.65.7-2.69.7-1.87,0-3.32-.69-4.34-2.08-.77-1.03-1.15-2.25-1.15-3.65,0-1.13.25-2.16.76-3.1.5-.94,1.2-1.67,2.08-2.19.88-.52,1.85-.78,2.9-.78.82,0,1.62.2,2.41.6.23.12.4.18.5.18.15,0,.28-.05.39-.16.14-.15.25-.36.31-.62h.29Z"/>
      <path class="cls-1" d="M391.99,83.86v.31h-4.84v-.31h.4c.47,0,.8-.14,1.02-.41.13-.18.2-.6.2-1.28v-7.29c0-.57-.04-.95-.11-1.13-.06-.14-.17-.26-.34-.36-.24-.13-.5-.2-.77-.2h-.4v-.31h4.84v.31h-.41c-.46,0-.8.14-1.01.41-.14.18-.21.6-.21,1.28v7.29c0,.57.04.95.11,1.13.06.14.17.26.35.36.24.13.49.2.76.2h.41Z"/>
      <path class="cls-1" d="M400.63,80.39h-4.37l-.77,1.78c-.19.44-.28.77-.28.98,0,.17.08.32.25.45.16.13.52.22,1.06.25v.31h-3.55v-.31c.47-.08.78-.19.92-.32.28-.27.6-.81.94-1.62l3.97-9.29h.29l3.93,9.39c.32.75.6,1.24.86,1.47.26.22.62.35,1.08.38v.31h-4.45v-.31c.45-.02.75-.1.91-.22.16-.13.24-.28.24-.47,0-.24-.11-.63-.33-1.16l-.68-1.62ZM400.4,79.78l-1.91-4.56-1.96,4.56h3.88Z"/>
      <path class="cls-1" d="M415.35,81.05l.27.06-.97,3.06h-8.74v-.31h.42c.48,0,.82-.16,1.02-.47.12-.18.17-.59.17-1.23v-7.28c0-.7-.08-1.15-.23-1.32-.22-.24-.54-.37-.97-.37h-.42v-.31h5.11v.31c-.6,0-1.02.05-1.26.17-.24.12-.41.26-.5.44-.09.18-.13.6-.13,1.27v7.09c0,.46.04.78.13.95.07.12.17.2.31.26.14.06.57.08,1.3.08h.82c.87,0,1.47-.06,1.82-.19.35-.13.67-.35.96-.68.29-.32.58-.84.87-1.54Z"/>
    </g>
    <g>
      <path class="cls-1" d="M475.96,83.86v.31h-4.84v-.31h.4c.47,0,.8-.14,1.02-.41.13-.18.2-.6.2-1.28v-7.29c0-.57-.04-.95-.11-1.13-.06-.14-.17-.26-.34-.36-.24-.13-.5-.2-.77-.2h-.4v-.31h4.84v.31h-.41c-.46,0-.8.14-1.01.41-.14.18-.21.6-.21,1.28v7.29c0,.57.04.95.11,1.13.06.14.17.26.35.36.24.13.49.2.76.2h.41Z"/>
      <path class="cls-1" d="M476.33,72.88h3.06l6.9,8.46v-6.51c0-.69-.08-1.13-.23-1.3-.21-.23-.53-.35-.97-.35h-.39v-.31h3.93v.31h-.4c-.48,0-.82.14-1.02.43-.12.18-.18.58-.18,1.22v9.51h-.3l-7.44-9.09v6.95c0,.69.08,1.13.22,1.3.21.23.54.35.97.35h.4v.31h-3.93v-.31h.39c.48,0,.82-.14,1.02-.43.12-.18.18-.58.18-1.22v-7.85c-.33-.38-.58-.64-.75-.76-.17-.12-.42-.24-.74-.34-.16-.05-.41-.07-.73-.07v-.31Z"/>
      <path class="cls-1" d="M489.33,84.17v-.31h.42c.48,0,.82-.15,1.02-.46.12-.18.18-.59.18-1.23v-7.29c0-.7-.08-1.15-.23-1.32-.22-.24-.54-.37-.97-.37h-.42v-.31h4.59c1.69,0,2.97.19,3.85.57s1.59,1.02,2.12,1.91.8,1.93.8,3.1c0,1.57-.48,2.88-1.43,3.94-1.07,1.18-2.7,1.76-4.89,1.76h-5.04ZM492.55,83.35c.7.16,1.3.23,1.77.23,1.29,0,2.36-.45,3.2-1.36.85-.9,1.27-2.13,1.27-3.68s-.42-2.79-1.27-3.69c-.85-.9-1.94-1.35-3.27-1.35-.5,0-1.07.08-1.71.24v9.6Z"/>
      <path class="cls-1" d="M509.65,73.19v-.31h4v.31h-.42c-.44,0-.79.19-1.02.56-.12.17-.17.57-.17,1.2v4.58c0,1.13-.11,2.01-.34,2.63-.22.62-.67,1.16-1.32,1.61-.66.45-1.55.67-2.68.67-1.23,0-2.17-.21-2.8-.64-.64-.43-1.09-1-1.36-1.72-.18-.49-.27-1.42-.27-2.78v-4.41c0-.69-.1-1.15-.29-1.36-.19-.22-.5-.32-.93-.32h-.42v-.31h4.88v.31h-.43c-.47,0-.8.15-1,.44-.14.2-.21.62-.21,1.25v4.92c0,.44.04.94.12,1.51.08.57.23,1.01.44,1.32.21.32.51.58.91.78.4.21.88.31,1.46.31.74,0,1.4-.16,1.98-.48s.98-.73,1.19-1.24c.21-.5.32-1.35.32-2.55v-4.57c0-.7-.08-1.15-.23-1.32-.22-.24-.54-.37-.97-.37h-.42Z"/>
      <path class="cls-1" d="M521.82,72.63v3.9h-.31c-.1-.75-.28-1.35-.54-1.79-.26-.44-.63-.8-1.1-1.06-.48-.26-.97-.39-1.48-.39-.58,0-1.05.18-1.43.53-.38.35-.57.75-.57,1.2,0,.34.12.66.36.94.34.42,1.16.97,2.46,1.67,1.05.57,1.77,1,2.16,1.3.39.3.68.66.89,1.07.21.41.31.84.31,1.29,0,.85-.33,1.59-.99,2.21s-1.52.93-2.56.93c-.33,0-.64-.02-.92-.07-.17-.03-.53-.13-1.07-.3s-.88-.26-1.03-.26-.25.04-.33.12c-.08.08-.14.25-.18.52h-.31v-3.87h.31c.14.81.34,1.42.58,1.82s.62.74,1.12,1c.5.27,1.05.4,1.65.4.69,0,1.24-.18,1.64-.55.4-.37.6-.8.6-1.3,0-.28-.08-.56-.23-.84-.15-.28-.39-.55-.71-.79-.22-.17-.81-.52-1.77-1.06-.97-.54-1.65-.97-2.06-1.29-.41-.32-.72-.68-.93-1.07-.21-.39-.32-.82-.32-1.28,0-.81.31-1.51.93-2.09s1.41-.88,2.37-.88c.6,0,1.23.15,1.91.44.31.14.53.21.66.21.14,0,.26-.04.35-.13.09-.09.17-.26.22-.52h.31Z"/>
      <path class="cls-1" d="M533.52,72.88l.12,2.65h-.32c-.06-.47-.14-.8-.25-1-.17-.32-.4-.56-.69-.71s-.66-.23-1.13-.23h-1.59v8.62c0,.69.07,1.13.22,1.3.21.23.54.35.97.35h.39v.31h-4.79v-.31h.4c.48,0,.82-.14,1.02-.43.12-.18.18-.58.18-1.22v-8.62h-1.36c-.53,0-.9.04-1.12.12-.29.11-.54.31-.74.61-.21.3-.33.7-.37,1.22h-.32l.13-2.65h9.21Z"/>
      <path class="cls-1" d="M545.76,84.17h-3.01l-3.82-5.28c-.28.01-.51.02-.69.02-.07,0-.15,0-.23,0-.08,0-.17,0-.26-.01v3.28c0,.71.08,1.15.23,1.32.21.24.53.37.95.37h.44v.31h-4.84v-.31h.42c.48,0,.82-.16,1.02-.47.12-.17.17-.58.17-1.22v-7.29c0-.71-.08-1.15-.23-1.32-.22-.24-.54-.37-.97-.37h-.42v-.31h4.11c1.2,0,2.08.09,2.65.26s1.05.5,1.45.97c.4.47.6,1.03.6,1.68,0,.69-.23,1.3-.68,1.81-.45.51-1.15.87-2.1,1.08l2.33,3.24c.53.74.99,1.24,1.37,1.48s.88.4,1.5.47v.31ZM537.75,78.37c.1,0,.2,0,.27,0,.08,0,.14,0,.19,0,1.08,0,1.89-.23,2.43-.7.55-.47.82-1.06.82-1.78s-.22-1.28-.66-1.72c-.44-.44-1.03-.66-1.75-.66-.32,0-.76.05-1.31.16v4.69Z"/>
      <path class="cls-1" d="M551.05,83.86v.31h-4.84v-.31h.4c.47,0,.8-.14,1.02-.41.13-.18.2-.6.2-1.28v-7.29c0-.57-.04-.95-.11-1.13-.06-.14-.17-.26-.34-.36-.24-.13-.5-.2-.77-.2h-.4v-.31h4.84v.31h-.41c-.46,0-.8.14-1.01.41-.14.18-.21.6-.21,1.28v7.29c0,.57.04.95.11,1.13.06.14.17.26.35.36.24.13.49.2.76.2h.41Z"/>
      <path class="cls-1" d="M559.44,80.39h-4.37l-.77,1.78c-.19.44-.28.77-.28.98,0,.17.08.32.25.45.16.13.52.22,1.06.25v.31h-3.55v-.31c.47-.08.78-.19.92-.32.28-.27.6-.81.94-1.62l3.97-9.29h.29l3.93,9.39c.32.75.6,1.24.86,1.47.26.22.62.35,1.08.38v.31h-4.45v-.31c.45-.02.75-.1.91-.22.16-.13.24-.28.24-.47,0-.24-.11-.63-.33-1.16l-.68-1.62ZM559.2,79.78l-1.91-4.56-1.96,4.56h3.88Z"/>
      <path class="cls-1" d="M573.89,81.05l.27.06-.97,3.06h-8.74v-.31h.42c.48,0,.82-.16,1.02-.47.12-.18.17-.59.17-1.23v-7.28c0-.7-.08-1.15-.23-1.32-.22-.24-.54-.37-.97-.37h-.42v-.31h5.11v.31c-.6,0-1.02.05-1.26.17-.24.12-.41.26-.5.44-.09.18-.13.6-.13,1.27v7.09c0,.46.04.78.13.95.07.12.17.2.31.26.14.06.57.08,1.3.08h.82c.87,0,1.47-.06,1.82-.19.35-.13.67-.35.96-.68.29-.32.58-.84.87-1.54Z"/>
    </g>
    <rect class="cls-1" x="151.48" y="48.6" width="423.83" height="3"/>
  </g>
</svg>